<svg xmlns="http://www.w3.org/2000/svg" width="960" height="300" viewBox="0 0 960 300" role="img" aria-labelledby="title desc">
  <title id="title">Bastion</title>
  <desc id="desc">A cobalt blue shield with a luminous doorway and the word Bastion.</desc>
  <defs>
    <linearGradient id="shield" x1="0" x2="1" y1="0" y2="1">
      <stop stop-color="#74a7ff"/><stop offset="1" stop-color="#2853c7"/>
    </linearGradient>
    <linearGradient id="door" x1="0" x2="0" y1="0" y2="1">
      <stop stop-color="#eaf2ff"/><stop offset="1" stop-color="#82a9ff"/>
    </linearGradient>
  </defs>
  <rect width="960" height="300" rx="42" fill="#0b1020"/>
  <path d="M150 35 245 74v70c0 62-39 98-95 121-56-23-95-59-95-121V74z" fill="url(#shield)"/>
  <path d="M150 61 219 89v54c0 42-25 70-69 89-44-19-69-47-69-89V89z" fill="#101d44" opacity=".88"/>
  <path d="M128 171V108l22-19 22 19v63z" fill="url(#door)"/>
  <circle cx="150" cy="128" r="5" fill="#183c95"/>
  <path d="M98 188h104M108 203h84" stroke="#a9c6ff" stroke-linecap="round" stroke-width="9"/>
  <text x="294" y="151" fill="#f5f8ff" font-family="ui-sans-serif,system-ui,-apple-system,BlinkMacSystemFont,Segoe UI,sans-serif" font-size="104" font-weight="800" letter-spacing="-4">bastion</text>
  <text x="301" y="202" fill="#9bb8f7" font-family="ui-monospace,SFMono-Regular,Consolas,monospace" font-size="22" letter-spacing="4">YOUR AGENT. YOUR AUTHORITY.</text>
</svg>
